<svg width="498" viewBox="0 0 498 404" fill="none"
    xmlns="http://www.w3.org/2000/svg">
    <g clip-path="url(#clip0)">
        <rect width="419.758" height="281.001" rx="20.7454" transform="matrix(1 0 -0.0495471 0.998772 13.9219 0)" fill="white"/>
        <rect width="93.3636" height="26.9054" rx="5.65783" transform="matrix(1 0 -0.0495471 0.998772 301.91 29.5342)" fill="#FDCA40"/>
        <rect width="45.9741" height="6.55586" rx="2.82892" transform="matrix(1 0 -0.0495471 0.998772 325.1 39.6963)" fill="black" fill-opacity="0.22"/>
        <rect width="217.301" height="26.903" rx="7.54378" transform="matrix(1 0 -0.0495471 0.998772 46.6289 76.3308)" fill="#EAEDEF"/>
        <rect width="113.822" height="26.903" rx="7.54378" transform="matrix(1 0 -0.0495471 0.998772 282.49 76.3308)" fill="#EAEDEF"/>
        <rect width="349.684" height="121.967" rx="8.48675" transform="matrix(1 0 -0.0495471 0.998772 44.3965 121.311)" fill="#EAEDEF"/>
        <rect width="18.9492" height="18.9492" rx="2.54563" transform="matrix(1 0 -0.0495471 0.998772 53.1289 130.327)" fill="white"/>
        <rect width="18.9492" height="18.9492" rx="2.54563" transform="matrix(1 0 -0.0495471 0.998772 76.4805 130.327)" fill="white"/>
        <rect width="18.9492" height="18.9492" rx="2.54563" transform="matrix(1 0 -0.0495471 0.998772 99.8379 130.327)" fill="white"/>
        <rect width="18.9492" height="18.9492" rx="2.54563" transform="matrix(1 0 -0.0495471 0.998772 295.027 130.327)" fill="white"/>
        <rect width="18.9492" height="18.9492" rx="2.54563" transform="matrix(1 0 -0.0495471 0.998772 318.012 130.327)" fill="white"/>
        <rect width="18.9492" height="18.9492" rx="2.54563" transform="matrix(1 0 -0.0495471 0.998772 340.998 130.327)" fill="white"/>
        <rect width="18.9492" height="18.9492" rx="2.54563" transform="matrix(1 0 -0.0495471 0.998772 363.984 130.327)" fill="white"/>
        <path d="M63.1089 139.243C63.3221 139.277 63.513 139.364 63.6813 139.506C63.8553 139.647 63.9881 139.822 64.0795 140.031C64.1766 140.24 64.2193 140.463 64.2075 140.701C64.1927 141 64.1029 141.271 63.9381 141.514C63.7736 141.751 63.5407 141.941 63.2396 142.082C62.9443 142.218 62.5987 142.285 62.2027 142.285H59.9965L60.2896 136.378H62.4109C62.8126 136.378 63.1514 136.446 63.4276 136.582C63.704 136.712 63.9073 136.89 64.0375 137.116C64.1677 137.342 64.2258 137.596 64.2118 137.878C64.1944 138.229 64.0838 138.52 63.88 138.751C63.6821 138.977 63.425 139.141 63.1089 139.243ZM60.9352 138.929H62.2335C62.5955 138.929 62.8797 138.844 63.0861 138.675C63.2925 138.505 63.4032 138.271 63.418 137.972C63.4329 137.672 63.3455 137.438 63.1559 137.268C62.9663 137.099 62.6849 137.014 62.3115 137.014H61.0302L60.9352 138.929ZM62.1664 141.65C62.5511 141.65 62.8554 141.559 63.0793 141.379C63.3032 141.198 63.4232 140.946 63.4392 140.624C63.4554 140.297 63.355 140.039 63.138 139.853C62.9212 139.661 62.6234 139.565 62.2443 139.565H60.9036L60.8002 141.65H62.1664Z" fill="black"/>
        <path d="M86.7788 136.378L85.4336 142.285H84.6614L86.0066 136.378H86.7788Z" fill="black"/>
        <path d="M107.471 136.378L107.285 140.116C107.259 140.641 107.367 141.031 107.609 141.285C107.857 141.54 108.209 141.667 108.668 141.667C109.12 141.667 109.48 141.54 109.747 141.285C110.02 141.031 110.17 140.641 110.196 140.116L110.381 136.378H111.153L110.968 140.107C110.944 140.599 110.824 141.014 110.609 141.353C110.395 141.686 110.114 141.935 109.766 142.099C109.424 142.263 109.044 142.345 108.626 142.345C108.207 142.345 107.832 142.263 107.501 142.099C107.175 141.935 106.922 141.686 106.74 141.353C106.565 141.014 106.489 140.599 106.513 140.107L106.698 136.378H107.471Z" fill="black"/>
        <path fill-rule="evenodd" clip-rule="evenodd" d="M350.477 142.337H352.863L353.968 140.292L354.001 137.182H350.358L350.322 140.619H351.406L350.477 142.337ZM352.314 141.478H351.962L352.907 139.76H351.229L351.248 138.041H353.102L353.08 140.086L352.314 141.478ZM348.563 142.338H346.178L347.106 140.619H346.023L346.059 137.182H349.701L349.668 140.293L348.563 142.338ZM348.012 141.478H347.659L348.605 139.76H346.927L346.946 138.041H348.8L348.778 140.086L348.012 141.478Z" fill="black"/>
        <path d="M309.506 134.521H299.079C298.913 134.521 298.75 134.587 298.627 134.704C298.504 134.821 298.43 134.98 298.422 135.146L297.988 143.894C297.98 144.06 298.038 144.219 298.149 144.336C298.261 144.453 298.417 144.519 298.583 144.519H309.01C309.176 144.519 309.338 144.453 309.462 144.336C309.585 144.219 309.659 144.06 309.667 143.894L310.101 135.146C310.109 134.98 310.051 134.821 309.939 134.704C309.828 134.587 309.672 134.521 309.506 134.521ZM306.181 136.193C306.438 136.169 306.692 136.225 306.909 136.353C307.126 136.481 307.295 136.674 307.393 136.907C307.49 137.139 307.512 137.4 307.455 137.653C307.398 137.906 307.265 138.139 307.074 138.321C306.883 138.502 306.644 138.624 306.388 138.668C306.133 138.712 305.873 138.678 305.646 138.569C305.418 138.46 305.234 138.281 305.117 138.059C305 137.836 304.957 137.579 304.993 137.323C305.034 137.032 305.175 136.76 305.392 136.553C305.609 136.347 305.888 136.219 306.181 136.193V136.193ZM299.145 143.686C299.063 143.686 298.985 143.653 298.929 143.594C298.873 143.536 298.844 143.456 298.848 143.373L298.961 141.092L302.463 138.114L304.865 140.633L301.658 143.686H299.145ZM308.858 143.373C308.854 143.456 308.817 143.536 308.756 143.594C308.694 143.653 308.613 143.686 308.53 143.686H302.838L306.929 139.793L308.949 141.547L308.858 143.373Z" fill="black"/>
        <path d="M325.566 141.858H324.185C323.564 141.858 322.981 141.612 322.564 141.173C322.147 140.735 321.929 140.14 321.96 139.52C321.991 138.9 322.267 138.305 322.728 137.867C323.188 137.429 323.796 137.182 324.417 137.182H325.768M328.527 137.182H329.878C330.499 137.182 331.082 137.429 331.499 137.867C331.916 138.305 332.134 138.9 332.103 139.52C332.072 140.14 331.796 140.735 331.335 141.173C330.875 141.612 330.267 141.858 329.646 141.858H328.265M324.912 139.52H329.2" stroke="black" stroke-width="1.1703" stroke-linecap="square" stroke-linejoin="round"/>
        <path d="M371.002 142.364C370.904 142.364 370.81 142.328 370.739 142.263L368.367 140.096C368.325 140.058 368.293 140.011 368.271 139.958C368.25 139.905 368.241 139.848 368.243 139.79C368.246 139.732 368.262 139.675 368.288 139.622C368.315 139.57 368.352 139.523 368.397 139.485L370.985 137.317C371.07 137.246 371.177 137.211 371.285 137.218C371.392 137.225 371.49 137.274 371.557 137.356C371.624 137.437 371.655 137.543 371.642 137.65C371.63 137.758 371.575 137.858 371.49 137.929L369.268 139.79L371.305 141.652C371.365 141.706 371.406 141.778 371.422 141.858C371.438 141.939 371.429 142.023 371.396 142.1C371.363 142.178 371.308 142.245 371.238 142.292C371.167 142.339 371.085 142.364 371.002 142.364V142.364ZM374.722 142.364C374.639 142.364 374.56 142.339 374.494 142.292C374.428 142.245 374.379 142.178 374.354 142.1C374.329 142.023 374.328 141.939 374.352 141.858C374.376 141.778 374.424 141.706 374.489 141.652L376.712 139.79L374.674 137.929C374.596 137.858 374.552 137.758 374.55 137.65C374.548 137.543 374.589 137.437 374.664 137.356C374.739 137.274 374.842 137.225 374.95 137.218C375.058 137.211 375.163 137.246 375.24 137.317L377.613 139.485C377.654 139.523 377.687 139.57 377.708 139.622C377.73 139.675 377.739 139.732 377.736 139.79C377.733 139.848 377.718 139.905 377.692 139.958C377.665 140.011 377.628 140.058 377.582 140.096L374.995 142.263C374.918 142.328 374.821 142.364 374.722 142.364V142.364Z" fill="black"/>
        <circle r="3.40446" transform="matrix(1 0 -0.0495471 0.998772 55.2416 39.9786)" fill="#33A1FD"/>
        <circle r="3.40446" transform="matrix(1 0 -0.0495471 0.998772 64.4174 39.9786)" fill="#FFCB2C"/>
        <circle r="3.40446" transform="matrix(1 0 -0.0495471 0.998772 73.5912 39.9786)" fill="#F5820C"/>
        <g filter="url(#filter0_d)">
            <rect width="337.387" height="179.479" rx="19.8024" transform="matrix(1 0 -0.0660997 0.997813 160.432 224.672)" fill="white"/>
        </g>
        <rect width="136.883" height="120.423" rx="8.01324" transform="matrix(1 0 -0.0660997 0.997813 189.773 252.694)" fill="#FDCA40"/>
        <rect width="107.142" height="11.4862" rx="3.73951" transform="matrix(1 0 -0.0660997 0.997813 339.074 288.281)" fill="#EAEDEF"/>
        <rect width="82.1114" height="11.4862" rx="3.73951" transform="matrix(1 0 -0.0660997 0.997813 341.021 258.894)" fill="#EAEDEF"/>
        <rect width="107.142" height="11.4862" rx="3.73951" transform="matrix(1 0 -0.0660997 0.997813 338.096 303.087)" fill="#EAEDEF"/>
        <rect width="85.9278" height="11.4862" rx="3.73951" transform="matrix(1 0 -0.0660997 0.997813 337.115 317.894)" fill="#EAEDEF"/>
        <rect width="107.142" height="25.8519" rx="3.73951" transform="matrix(1 0 -0.0660997 0.997813 335.182 347.059)" fill="#33A1FD"/>
        <rect width="46.015" height="6.76396" rx="1.60603" transform="matrix(1 0 -0.0660997 0.997813 365.1 356.809)" fill="white" fill-opacity="0.35"/>
        <path d="M244.943 291.536C248.552 291.535 251.285 294.455 251.047 298.057C250.808 301.658 247.689 304.578 244.079 304.578C240.47 304.578 237.737 301.658 237.976 298.056C238.215 294.455 241.334 291.536 244.943 291.536Z" fill="white"/>
        <path d="M278.637 318.56C279.224 320.77 278.83 322.585 278.83 322.585C278.665 325.081 276.503 327.105 274 327.105H232.554C230.052 327.105 228.158 325.081 228.323 322.585C228.323 322.585 228.035 321.043 229.965 318.967C231.895 316.89 238.606 313.083 238.606 313.083C240.195 312.084 242.168 312.092 243.615 313.102L249.127 316.952C251.054 318.3 253.809 317.821 255.372 315.868L263.782 305.361C264.721 304.187 266.142 303.499 267.599 303.512C269.056 303.524 270.371 304.236 271.133 305.425C271.133 305.425 278.049 316.35 278.637 318.56Z" fill="white"/>
    </g>
    <defs>
        <filter id="filter0_d" x="110.229" y="185.067" width="418.386" height="250.753" filterUnits="userSpaceOnUse" color-interpolation-filters="sRGB">
            <feFlood flood-opacity="0" result="BackgroundImageFix"/>
            <feColorMatrix in="SourceAlpha" type="matrix" values="0 0 0 0 0 0 0 0 0 0 0 0 0 0 0 0 0 0 127 0"/>
            <feOffset dx="-3.77189" dy="-3.77189"/>
            <feGaussianBlur stdDeviation="17.9165"/>
            <feColorMatrix type="matrix" values="0 0 0 0 0 0 0 0 0 0 0 0 0 0 0 0 0 0 0.1 0"/>
            <feBlend mode="normal" in2="BackgroundImageFix" result="effect1_dropShadow"/>
            <feBlend mode="normal" in="SourceGraphic" in2="effect1_dropShadow" result="shape"/>
        </filter>
        <clipPath id="clip0">
            <rect width="497.819" height="403.759" fill="white"/>
        </clipPath>
    </defs>
</svg>
