<svg width="498" viewBox="0 0 498 404" fill="none"
    xmlns="http://www.w3.org/2000/svg">
    <g clip-path="url(#clip0)">
        <rect width="419.758" height="281.001" rx="20.7454" transform="matrix(1 0 -0.0495471 0.998772 14.0723 0.120728)" fill="white"/>
        <rect width="93.3636" height="26.9054" rx="5.65783" transform="matrix(1 0 -0.0495471 0.998772 302.06 29.6548)" fill="#28E3E3"/>
        <rect width="45.9741" height="6.55586" rx="2.82892" transform="matrix(1 0 -0.0495471 0.998772 325.25 39.817)" fill="black" fill-opacity="0.22"/>
        <rect width="217.301" height="26.903" rx="7.54378" transform="matrix(1 0 -0.0495471 0.998772 46.7799 76.4515)" fill="#EAEDEF"/>
        <rect width="113.822" height="26.903" rx="7.54378" transform="matrix(1 0 -0.0495471 0.998772 282.641 76.4515)" fill="#EAEDEF"/>
        <rect width="349.684" height="121.967" rx="8.48675" transform="matrix(1 0 -0.0495471 0.998772 44.5466 121.432)" fill="#EAEDEF"/>
        <rect width="18.9492" height="18.9492" rx="2.54563" transform="matrix(1 0 -0.0495471 0.998772 53.2786 130.448)" fill="white"/>
        <rect width="18.9492" height="18.9492" rx="2.54563" transform="matrix(1 0 -0.0495471 0.998772 76.6307 130.448)" fill="white"/>
        <rect width="18.9492" height="18.9492" rx="2.54563" transform="matrix(1 0 -0.0495471 0.998772 99.9888 130.448)" fill="white"/>
        <rect width="18.9492" height="18.9492" rx="2.54563" transform="matrix(1 0 -0.0495471 0.998772 295.177 130.448)" fill="white"/>
        <rect width="18.9492" height="18.9492" rx="2.54563" transform="matrix(1 0 -0.0495471 0.998772 318.162 130.448)" fill="white"/>
        <rect width="18.9492" height="18.9492" rx="2.54563" transform="matrix(1 0 -0.0495471 0.998772 341.149 130.448)" fill="white"/>
        <rect width="18.9492" height="18.9492" rx="2.54563" transform="matrix(1 0 -0.0495471 0.998772 364.134 130.448)" fill="white"/>
        <path d="M63.2594 139.363C63.4727 139.397 63.6635 139.485 63.8318 139.626C64.0059 139.767 64.1386 139.943 64.23 140.152C64.3272 140.361 64.3698 140.584 64.3581 140.821C64.3432 141.121 64.2534 141.392 64.0886 141.635C63.9241 141.872 63.6912 142.061 63.3901 142.203C63.0948 142.338 62.7492 142.406 62.3532 142.406H60.147L60.4401 136.499H62.5614C62.9631 136.499 63.302 136.567 63.5781 136.702C63.8545 136.832 64.0578 137.01 64.188 137.236C64.3182 137.462 64.3763 137.716 64.3623 137.999C64.3449 138.349 64.2343 138.64 64.0305 138.872C63.8326 139.098 63.5756 139.262 63.2594 139.363ZM61.0857 139.05H62.384C62.746 139.05 63.0302 138.965 63.2366 138.796C63.443 138.626 63.5537 138.392 63.5685 138.092C63.5834 137.793 63.496 137.558 63.3064 137.389C63.1168 137.219 62.8354 137.134 62.462 137.134H61.1807L61.0857 139.05ZM62.3169 141.77C62.7016 141.77 63.0059 141.68 63.2298 141.499C63.4537 141.318 63.5737 141.067 63.5897 140.745C63.6059 140.417 63.5055 140.16 63.2885 139.974C63.0718 139.782 62.7739 139.685 62.3949 139.685H61.0542L60.9507 141.77H62.3169Z" fill="black"/>
        <path d="M86.9284 136.499L85.5831 142.406H84.811L86.1562 136.499H86.9284Z" fill="black"/>
        <path d="M107.622 136.499L107.436 140.236C107.41 140.762 107.518 141.152 107.76 141.406C108.008 141.66 108.36 141.787 108.819 141.787C109.271 141.787 109.631 141.66 109.898 141.406C110.171 141.152 110.321 140.762 110.347 140.236L110.532 136.499H111.304L111.119 140.228C111.095 140.719 110.975 141.135 110.76 141.474C110.546 141.807 110.265 142.056 109.917 142.219C109.575 142.383 109.195 142.465 108.777 142.465C108.358 142.465 107.983 142.383 107.652 142.219C107.326 142.056 107.073 141.807 106.891 141.474C106.716 141.135 106.64 140.719 106.664 140.228L106.849 136.499H107.622Z" fill="black"/>
        <path fill-rule="evenodd" clip-rule="evenodd" d="M350.628 142.458H353.014L354.119 140.413L354.151 137.303H350.509L350.473 140.74H351.557L350.628 142.458ZM352.465 141.599H352.112L353.058 139.88H351.38L351.399 138.162H353.253L353.231 140.207L352.465 141.599ZM348.714 142.458H346.329L347.257 140.74H346.174L346.21 137.303H349.852L349.819 140.413L348.714 142.458ZM348.163 141.599H347.81L348.756 139.88H347.078L347.097 138.162H348.951L348.929 140.207L348.163 141.599Z" fill="black"/>
        <path d="M309.657 134.642H299.23C299.064 134.642 298.901 134.708 298.778 134.825C298.655 134.942 298.581 135.101 298.573 135.267L298.139 144.015C298.131 144.181 298.189 144.34 298.3 144.457C298.412 144.574 298.568 144.64 298.734 144.64H309.161C309.327 144.64 309.489 144.574 309.612 144.457C309.736 144.34 309.809 144.181 309.818 144.015L310.252 135.267C310.26 135.101 310.202 134.942 310.09 134.825C309.979 134.708 309.823 134.642 309.657 134.642ZM306.332 136.313C306.589 136.29 306.843 136.346 307.06 136.474C307.277 136.601 307.446 136.795 307.543 137.027C307.641 137.26 307.663 137.521 307.606 137.774C307.549 138.027 307.416 138.26 307.225 138.442C307.034 138.623 306.795 138.745 306.539 138.789C306.283 138.833 306.024 138.799 305.797 138.689C305.569 138.58 305.385 138.402 305.268 138.179C305.151 137.957 305.108 137.7 305.144 137.444C305.185 137.153 305.326 136.881 305.543 136.674C305.76 136.468 306.039 136.34 306.332 136.313ZM299.296 143.807C299.213 143.807 299.135 143.774 299.08 143.715C299.024 143.657 298.995 143.577 298.999 143.494L299.112 141.213L302.613 138.235L305.016 140.754L301.809 143.807H299.296ZM309.009 143.494C309.005 143.577 308.968 143.657 308.907 143.715C308.845 143.774 308.764 143.807 308.681 143.807H302.988L307.08 139.913L309.1 141.667L309.009 143.494Z" fill="black"/>
        <path d="M325.717 141.979H324.335C323.714 141.979 323.131 141.732 322.714 141.294C322.297 140.855 322.08 140.261 322.111 139.641C322.141 139.021 322.417 138.426 322.878 137.988C323.339 137.549 323.946 137.303 324.567 137.303H325.918M328.678 137.303H330.029C330.649 137.303 331.232 137.549 331.65 137.988C332.067 138.426 332.284 139.021 332.253 139.641C332.222 140.261 331.946 140.855 331.486 141.294C331.025 141.732 330.417 141.979 329.797 141.979H328.415M325.062 139.641H329.35" stroke="black" stroke-width="1.1703" stroke-linecap="square" stroke-linejoin="round"/>
        <path d="M371.152 142.485C371.054 142.485 370.961 142.449 370.89 142.384L368.517 140.217C368.476 140.179 368.443 140.132 368.422 140.079C368.4 140.026 368.391 139.969 368.394 139.911C368.397 139.853 368.412 139.796 368.438 139.743C368.465 139.69 368.502 139.643 368.548 139.605L371.135 137.438C371.22 137.367 371.328 137.331 371.435 137.338C371.542 137.346 371.64 137.395 371.707 137.476C371.774 137.557 371.805 137.663 371.792 137.771C371.78 137.878 371.725 137.979 371.641 138.05L369.418 139.911L371.456 141.772C371.515 141.827 371.556 141.899 371.572 141.979C371.588 142.059 371.58 142.144 371.547 142.221C371.514 142.299 371.458 142.365 371.388 142.412C371.317 142.459 371.235 142.485 371.152 142.485ZM374.872 142.485C374.789 142.485 374.71 142.459 374.644 142.412C374.578 142.365 374.529 142.299 374.504 142.221C374.479 142.144 374.478 142.059 374.502 141.979C374.527 141.899 374.574 141.827 374.639 141.772L376.862 139.911L374.824 138.05C374.747 137.979 374.702 137.878 374.7 137.771C374.698 137.663 374.739 137.557 374.814 137.476C374.89 137.395 374.992 137.346 375.1 137.338C375.208 137.331 375.313 137.367 375.391 137.438L377.763 139.605C377.805 139.643 377.837 139.69 377.859 139.743C377.88 139.796 377.889 139.853 377.887 139.911C377.884 139.969 377.868 140.026 377.842 140.079C377.815 140.132 377.778 140.179 377.733 140.217L375.145 142.384C375.068 142.449 374.971 142.485 374.872 142.485Z" fill="black"/>
        <circle r="3.40446" transform="matrix(1 0 -0.0495471 0.998772 55.392 40.0994)" fill="#4C9394"/>
        <circle r="3.40446" transform="matrix(1 0 -0.0495471 0.998772 64.5683 40.0994)" fill="#4C9394"/>
        <circle r="3.40446" transform="matrix(1 0 -0.0495471 0.998772 73.7426 40.0994)" fill="#4C9394"/>
        <g filter="url(#filter0_d)">
            <rect width="337.387" height="179.479" rx="19.8024" transform="matrix(1 0 -0.0660997 0.997813 160.582 224.792)" fill="white"/>
        </g>
        <rect width="136.883" height="120.423" rx="8.01324" transform="matrix(1 0 -0.0660997 0.997813 189.924 252.815)" fill="#40C1C1"/>
        <rect width="107.142" height="11.4862" rx="3.73951" transform="matrix(1 0 -0.0660997 0.997813 339.225 288.402)" fill="#EAEDEF"/>
        <rect width="82.1114" height="11.4862" rx="3.73951" transform="matrix(1 0 -0.0660997 0.997813 341.172 259.015)" fill="#EAEDEF"/>
        <rect width="107.142" height="11.4862" rx="3.73951" transform="matrix(1 0 -0.0660997 0.997813 338.245 303.208)" fill="#EAEDEF"/>
        <rect width="85.9278" height="11.4862" rx="3.73951" transform="matrix(1 0 -0.0660997 0.997813 337.266 318.015)" fill="#EAEDEF"/>
        <rect width="107.142" height="25.8519" rx="3.73951" transform="matrix(1 0 -0.0660997 0.997813 335.332 347.179)" fill="#4C9394"/>
        <rect width="46.015" height="6.76396" rx="1.60603" transform="matrix(1 0 -0.0660997 0.997813 365.251 356.93)" fill="white" fill-opacity="0.35"/>
        <path d="M245.093 291.657C248.703 291.656 251.435 294.576 251.197 298.177C250.959 301.779 247.839 304.698 244.23 304.698C240.62 304.698 237.888 301.778 238.127 298.177C238.365 294.576 241.484 291.657 245.093 291.657Z" fill="white"/>
        <path d="M278.788 318.681C279.375 320.891 278.981 322.705 278.981 322.705C278.815 325.202 276.653 327.226 274.151 327.226H232.705C230.203 327.226 228.309 325.202 228.474 322.705C228.474 322.705 228.185 321.164 230.116 319.087C232.046 317.011 238.757 313.204 238.757 313.204C240.345 312.205 242.319 312.212 243.766 313.223L249.277 317.073C251.205 318.421 253.959 317.942 255.523 315.989L263.932 305.482C264.872 304.308 266.292 303.62 267.749 303.632C269.207 303.645 270.522 304.357 271.284 305.546C271.284 305.546 278.2 316.471 278.788 318.681Z" fill="white"/>
    </g>
    <defs>
        <filter id="filter0_d" x="110.379" y="185.188" width="418.386" height="250.753" filterUnits="userSpaceOnUse" color-interpolation-filters="sRGB">
            <feFlood flood-opacity="0" result="BackgroundImageFix"/>
            <feColorMatrix in="SourceAlpha" type="matrix" values="0 0 0 0 0 0 0 0 0 0 0 0 0 0 0 0 0 0 127 0"/>
            <feOffset dx="-3.77189" dy="-3.77189"/>
            <feGaussianBlur stdDeviation="17.9165"/>
            <feColorMatrix type="matrix" values="0 0 0 0 0 0 0 0 0 0 0 0 0 0 0 0 0 0 0.1 0"/>
            <feBlend mode="normal" in2="BackgroundImageFix" result="effect1_dropShadow"/>
            <feBlend mode="normal" in="SourceGraphic" in2="effect1_dropShadow" result="shape"/>
        </filter>
        <clipPath id="clip0">
            <rect width="497.819" height="403.759" fill="white" transform="translate(0.149414 0.120728)"/>
        </clipPath>
    </defs>
</svg>
