<svg width="35" height="35" viewBox="0 0 35 35" fill="none" xmlns="http://www.w3.org/2000/svg">
<g clip-path="url(#clip0)">
<path d="M11.5391 20.5206L31.8895 4.59111C32.7724 3.89998 34.052 4.6282 33.9045 5.73789L30.5636 30.8707C30.4484 31.7378 29.4972 32.2201 28.7258 31.8027L11.7162 22.5993C10.9245 22.1709 10.8311 21.0748 11.5391 20.5206Z" fill="#F79824"/>
<path d="M0.634835 17.6778L20.9852 1.74834C21.8681 1.0572 23.1477 1.78543 23.0002 2.89511L19.6593 28.028C19.5441 28.895 18.5929 29.3774 17.8215 28.9599L0.811935 19.7566C0.0202128 19.3282 -0.0731758 18.232 0.634835 17.6778Z" fill="#F79824"/>
<path d="M10.041 32.6096L10.041 3.12995C10.041 1.44993 12.0803 0.617623 13.2559 1.81788L33.5662 22.5556C34.4878 23.4965 34.1776 25.0694 32.9679 25.5901L12.6575 34.332C11.4198 34.8647 10.041 33.9571 10.041 32.6096Z" fill="#FDCA40"/>
</g>
<defs>
<clipPath id="clip0">
<rect width="35" height="35" fill="white"/>
</clipPath>
</defs>
</svg>
