<svg width="20" height="20" viewBox="0 0 17 17"
    xmlns="http://www.w3.org/2000/svg">
    <path d="M5.37891 3.78867C5.61931 3.89027 7.29931 4.60068 7.51531 4.69438C7.52911 4.70038 7.54511 4.70698 7.55581 4.69638C7.70051 4.58058 7.88661 4.51238 8.07271 4.51238C8.15651 4.51238 8.24021 4.52428 8.32391 4.54808C8.33561 4.55148 8.34981 4.55467 8.35981 4.54777C8.36701 4.54277 8.37141 4.53607 8.37611 4.52867L10.0302 1.96691L9.52611 1.46293C9.20401 1.14078 9.04291 0.979695 8.85661 0.920775C8.69971 0.871135 8.53111 0.871135 8.37421 0.920775C8.18791 0.979695 8.02681 1.14078 7.70471 1.46293L5.37891 3.78867Z"/>
    <path d="M5.144 8.75297L3.2207 5.94787L5.0172 4.15137C5.185 4.22477 5.793 4.48177 6.3397 4.71277L6.3499 4.71707C6.7663 4.89307 7.1453 5.05327 7.2642 5.10457C7.2762 5.10977 7.2871 5.11447 7.2924 5.12637C7.2956 5.13357 7.294 5.14297 7.2924 5.15067C7.2803 5.20817 7.2742 5.26567 7.2742 5.32317C7.2742 5.53437 7.357 5.73197 7.5017 5.88177C7.5136 5.89357 7.5016 5.91077 7.4911 5.92587L7.4855 5.93417L5.6618 8.75947C5.6568 8.76707 5.6522 8.77417 5.6446 8.77917C5.6349 8.78547 5.6214 8.78267 5.6102 8.77977C5.5391 8.76177 5.4629 8.75017 5.3927 8.75017C5.3274 8.75017 5.256 8.76237 5.1842 8.77517C5.1764 8.77657 5.1685 8.77807 5.1621 8.77337C5.1551 8.76827 5.149 8.76017 5.144 8.75297Z"/>
    <path d="M12.2501 6.3589C12.1968 6.2996 12.1306 6.2467 12.0516 6.2063C12.0497 6.2053 12.0479 6.2047 12.0461 6.204C12.0429 6.2027 12.0397 6.2015 12.0369 6.1988C12.0275 6.19 12.0239 6.1742 12.0259 6.1615L12.3348 4.271L13.7851 5.7213L12.2771 6.3629C12.2729 6.3647 12.2684 6.3657 12.2639 6.3657C12.2609 6.3657 12.2592 6.3657 12.2577 6.3651C12.2557 6.3644 12.2538 6.3625 12.2501 6.3589Z"/>
    <path d="M12.5625 6.76466L14.1546 6.09106L15.7051 7.64146C16.0271 7.96356 16.1883 8.12476 16.2472 8.31106C16.2559 8.33856 16.2631 8.36636 16.2687 8.39446L12.5634 6.82556L12.5576 6.82316C12.5426 6.81716 12.5254 6.81016 12.5254 6.79486C12.5254 6.77986 12.543 6.77266 12.5576 6.76656L12.5625 6.76466Z"/>
    <path d="M16.2056 8.89226L12.3452 7.25956C12.3324 7.25416 12.3168 7.24796 12.3042 7.25386C12.2999 7.25596 12.2973 7.25936 12.2946 7.26306L12.2933 7.26476C12.1831 7.41086 12.0197 7.50386 11.8296 7.53066C11.8111 7.53066 11.8078 7.55406 11.805 7.57406L11.8038 7.58266L11.3783 10.1931L11.3773 10.1986C11.3749 10.2119 11.3723 10.2264 11.3816 10.2356C11.5332 10.3514 11.6228 10.5217 11.6435 10.7125C11.6435 10.7308 11.6651 10.7344 11.6849 10.7376L11.6865 10.7379L11.6925 10.7389L11.6968 10.7397L13.9577 11.2106L15.7053 9.46306C15.9695 9.19876 16.1256 9.04266 16.2056 8.89226Z"/>
    <path d="M11.5317 11.197L13.556 11.6126L10.6816 14.487L11.174 11.4628L11.1746 11.4586C11.1751 11.4549 11.1756 11.4509 11.177 11.4474C11.1808 11.4377 11.1913 11.4335 11.2013 11.4296L11.2061 11.4277C11.3153 11.3822 11.408 11.3101 11.4841 11.2209C11.4938 11.2096 11.5054 11.1991 11.5201 11.1965C11.5234 11.196 11.5284 11.1963 11.5317 11.197Z"/>
    <path d="M10.073 15.0955C10.1881 14.3895 10.6172 11.7746 10.6671 11.4704C10.6681 11.4647 10.6705 11.4585 10.6729 11.4525C10.6781 11.4392 10.6831 11.4266 10.6719 11.4211C10.4699 11.3412 10.3205 11.1638 10.2623 10.9588C10.2615 10.9561 10.261 10.9534 10.2606 10.9509C10.2594 10.9446 10.2583 10.939 10.2532 10.9339C10.246 10.9268 10.2326 10.9227 10.2227 10.9206L6.25432 10.1022C6.24492 10.1003 6.23352 10.0984 6.22512 10.1029C6.21532 10.1081 6.21012 10.1171 6.20452 10.1265L6.20372 10.1279L6.19562 10.1418C6.18542 10.1593 6.17612 10.1753 6.16512 10.191L6.16122 10.1961C6.15712 10.2013 6.15302 10.2066 6.15242 10.2131C6.15162 10.222 6.15732 10.2297 6.16302 10.2371L6.16712 10.2427L9.74892 15.4196L10.073 15.0955Z"/>
    <path d="M5.79582 10.5488L9.39522 15.7719C9.15652 16.0083 9.01572 16.1333 8.85642 16.1837C8.69952 16.2333 8.53102 16.2333 8.37402 16.1837C8.18772 16.1248 8.02662 15.9637 7.70452 15.6415L4.10742 12.0445L5.04682 10.5871C5.05142 10.5799 5.05562 10.5733 5.06262 10.5684C5.07282 10.5611 5.08732 10.5646 5.09932 10.5683C5.19592 10.5982 5.28722 10.6103 5.38462 10.6103C5.51022 10.6103 5.62952 10.5852 5.75452 10.5351C5.76512 10.5308 5.77612 10.5283 5.78462 10.5358C5.78862 10.5394 5.79272 10.5444 5.79582 10.5488Z"/>
    <path d="M3.76105 11.6975L4.66155 10.3005C4.66595 10.2936 4.66935 10.287 4.66475 10.2802L4.66175 10.2765L4.65965 10.2739C4.64405 10.2534 4.62855 10.2328 4.61295 10.2092C4.61115 10.2064 4.60935 10.2034 4.60755 10.2002C4.60015 10.1877 4.59225 10.1741 4.57875 10.1741C4.57425 10.1741 4.56975 10.175 4.56555 10.1768L2.93555 10.872L3.76105 11.6975Z"/>
    <path d="M4.30547 9.7722L2.57074 10.5071L1.52663 9.4631C1.34916 9.2856 1.22038 9.1568 1.13086 9.0459L4.30497 9.7041L4.31687 9.7063C4.33667 9.7095 4.35827 9.713 4.35827 9.7313C4.35827 9.7512 4.33477 9.7605 4.31477 9.7685L4.30547 9.7722Z"/>
    <path d="M0.949219 8.50893L4.52867 9.25913C4.53467 9.26033 4.54107 9.26173 4.54637 9.25843C4.55507 9.25303 4.56127 9.24273 4.56617 9.23373C4.60737 9.15733 4.66587 9.08693 4.72437 9.02263C4.73647 9.01073 4.72457 8.99463 4.71377 8.97993L4.70837 8.97263C4.53867 8.72943 3.08407 6.62813 2.86387 6.30493L1.52743 7.64133C1.20529 7.96353 1.0442 8.12463 0.985289 8.31093C0.964859 8.37553 0.952839 8.44203 0.949219 8.50893Z"/>
    <path d="M8.7553 4.8395L10.3815 2.31812L11.9091 3.8457L11.5413 6.1245L11.5406 6.1307C11.54 6.1359 11.5394 6.1417 11.5375 6.1458C11.5339 6.1538 11.526 6.1556 11.5176 6.1575C11.5148 6.1582 11.5119 6.1589 11.509 6.1598C11.4317 6.1851 11.3599 6.2207 11.2983 6.2667C11.2954 6.2688 11.293 6.2713 11.2907 6.2738C11.286 6.2787 11.2817 6.2833 11.2745 6.2837C11.2698 6.284 11.2618 6.2829 11.2575 6.2811L8.9302 5.2922L8.9255 5.2903C8.9108 5.2842 8.8932 5.2769 8.8932 5.2619C8.8806 5.1375 8.8393 5.0131 8.7745 4.9043L8.7695 4.896C8.7581 4.8777 8.7459 4.8581 8.7553 4.8395Z"/>
    <path d="M8.80879 5.76071C8.79609 5.75531 8.78029 5.75091 8.76939 5.75941C8.76369 5.76391 8.75999 5.76921 8.75599 5.77521C8.60369 6.00131 8.35179 6.13411 8.07969 6.13411C8.04359 6.13411 8.00749 6.12891 7.96679 6.12301L7.94879 6.12041C7.92959 6.12041 7.91769 6.13911 7.90709 6.15591L7.90399 6.16071L6.11099 8.93641L6.10539 8.94461C6.09489 8.95971 6.08289 8.97701 6.09479 8.98871C6.10169 8.99551 6.10859 8.99551 6.11539 8.99551C6.12209 8.99551 10.6287 7.07381 10.9742 6.92651L10.9789 6.92451C10.9932 6.91861 11.0089 6.91211 11.0089 6.89711V6.83581C11.0089 6.79911 11.0144 6.76241 11.0206 6.73061C11.0219 6.72351 11.0232 6.71481 11.0205 6.70811C11.0155 6.69551 11.0027 6.69011 10.9902 6.68481L8.80879 5.76071Z"/>
    <path d="M6.34465 9.54305C6.32895 9.48975 6.31275 9.43474 6.31055 9.43444L11.2226 7.33984C11.2226 7.33984 11.2296 7.33994 11.2364 7.34674C11.2634 7.37324 11.286 7.39164 11.3078 7.40804C11.3111 7.41054 11.3149 7.41274 11.3187 7.41494C11.3288 7.42084 11.339 7.42674 11.3397 7.43744C11.3399 7.44114 11.3395 7.44394 11.3389 7.44754L10.9179 10.0322L10.9164 10.0424C10.9137 10.0628 10.9107 10.0855 10.8918 10.0855C10.6635 10.0988 10.4614 10.2285 10.3428 10.4242L10.3409 10.4273C10.3354 10.4366 10.3301 10.4454 10.3205 10.4502C10.3124 10.4543 10.3015 10.4525 10.2927 10.4507L6.37575 9.64264C6.37395 9.64224 6.35945 9.59334 6.34465 9.54305Z"/>
</svg>
